PathFileType	4	(X/Y/Z)	../Python\running\Running01\task.trc
DataRate	CameraRate	NumFrames	NumMarkers	Units	OrigDataRate	OrigDataStartFrame	OrigNumFrames
200.000000	200.000000	4	30	mm	200.000000	63	169
Frame#	Time	C7			RBAK			CLAV			STRN			RASI			LASI			RTH2			RTH3			RTB2			RHEE			RD5M			RTOE			LTH2			LTH3			LTB2			LTB3			LHEE			LTOE			LD5M			RPSI			RTH1			RTB1			RTB3			LPSI			PE03			T10			PE01			PE02			LTH1			LTB1			
		X1	Y1	Z1	X2	Y2	Z2	X3	Y3	Z3	X4	Y4	Z4	X5	Y5	Z5	X6	Y6	Z6	X7	Y7	Z7	X8	Y8	Z8	X9	Y9	Z9	X10	Y10	Z10	X11	Y11	Z11	X12	Y12	Z12	X13	Y13	Z13	X14	Y14	Z14	X15	Y15	Z15	X16	Y16	Z16	X17	Y17	Z17	X18	Y18	Z18	X19	Y19	Z19	X20	Y20	Z20	X21	Y21	Z21	X22	Y22	Z22	X23	Y23	Z23	X24	Y24	Z24	X25	Y25	Z25	X26	Y26	Z26	X27	Y27	Z27	X28	Y28	Z28	X29	Y29	Z29	X30	Y30	Z30	

64	0.315	-325.5750122070314	1376.58935546875	127.9889678955079	-397.046813964844	1305.043823242188	208.8021240234376	-215.4429168701173	1276.7783203125	163.2601013183594	-186.8262481689454	1083.585693359375	163.4910278320313	-241.8431091308595	889.0410156250005	248.4163665771486	-273.8896789550782	873.6703491210942	26.99170684814455	-145.5132598876954	579.2593994140627	272.1348571777345	-149.213363647461	640.2429809570315	281.0270080566407	-119.8670196533204	319.7499084472657	286.9151000976564	-150.4331665039063	97.26696777343756	204.5705566406251	-11.65188217163086	59.62677764892581	285.6807250976564	24.90063858032228	69.359001159668	240.9473571777345	-497.504577636719	609.751647949219	42.50375747680665	-421.278259277344	608.7637939453127	18.13315391540528	-692.2573242187502	314.8206481933595	81.15561676025393	-643.6378173828127	318.3306884765626	72.57280731201175	-793.1874389648442	201.8498382568361	146.849349975586	-710.492614746094	43.53141021728517	126.5020141601563	-740.7820434570315	63.39676666259768	90.42593383789065	-431.8914184570315	960.8414916992192	216.1417846679689	-198.8193817138673	635.4981079101565	290.3618774414064	-82.588493347168	365.5045776367189	275.1836242675782	-84.71548461914065	287.3003845214845	273.0841064453126	-444.4886169433596	961.2628784179692	132.6051483154297	-460.351013183594	940.5401000976567	153.9154815673829	-404.1380310058596	1091.667114257813	138.3465728759766	-418.7886962890627	992.239624023438	169.1560821533204	-449.8229675292971	943.6189575195317	203.4661712646486	-453.8699951171877	647.4981079101565	19.33965110778809	-650.0181274414065	379.8287658691407	66.37180328369143	
65	0.32	-308.4424133300782	1378.945190429688	129.0018920898438	-380.3721313476564	1307.052978515625	208.3239746093751	-198.4678344726564	1280.014770507813	164.7500762939454	-168.7859649658204	1087.609130859375	164.1701202392579	-223.6047973632814	891.790649414063	247.4363250732423	-255.5341644287111	875.267944335938	26.59187507629396	-130.0289764404297	579.7473754882815	272.0162963867189	-133.3248596191407	640.8688964843752	280.1492919921876	-96.12784576416021	319.9481811523439	285.9154052734376	-116.4273834228516	98.10235595703131	202.5097808837892	23.62379837036134	62.12514495849612	282.5114135742189	59.7428894042969	73.77745056152347	237.8973693847657	-482.0061035156252	613.7515869140627	43.08219528198244	-406.1389770507815	611.9351196289065	17.90229606628419	-679.9156494140627	320.568817138672	81.90303802490237	-631.2792968750002	323.5530090332032	73.70682525634768	-782.5974121093755	209.8281707763673	148.2739562988282	-702.2952270507815	49.68998718261722	127.4644088745118	-732.3696289062502	70.70271301269534	91.64211273193362	-413.2927246093752	963.8778686523442	215.0821685791017	-182.9645996093751	636.5623168945315	289.5953063964845	-60.89670181274417	367.3460693359376	274.8034973144532	-59.34575653076175	289.2244873046876	272.4203491210939	-425.7415161132815	964.3669433593755	131.5636138916016	-441.7117614746096	943.6399536132817	153.090316772461	-386.1655578613284	1093.932983398438	137.3624877929688	-399.7927856445315	995.230346679688	168.0164337158204	-430.9700927734377	946.885864257813	202.5822143554689	-438.1379089355471	650.983093261719	19.52524757385255	-636.908630371094	384.992614746094	67.0895690917969	
66	0.325	-291.2923278808595	1381.061645507813	129.9937744140626	-363.652801513672	1308.815185546875	207.9295501708986	-181.4922637939454	1282.921630859375	166.1480560302735	-150.7999572753907	1091.399047851563	164.8053588867188	-205.429901123047	894.2946166992192	246.5290069580079	-237.2148284912111	876.651245117188	26.26751708984376	-114.7035598754883	579.8532714843752	272.0671997070314	-117.5927352905274	641.0613403320315	279.6855773925782	-72.99481201171878	320.2014465332032	284.7971191406251	-83.4983825683594	99.42314910888678	200.354949951172	57.89076995849612	65.12023925781253	279.084442138672	93.49720001220706	78.77203369140628	234.5194396972657	-465.9769287109377	617.119079589844	43.45459365844728	-390.3828125000002	614.6973266601565	17.6408863067627	-667.2135009765627	326.2191162109376	82.69754791259768	-618.5325317382815	328.4743652343751	74.98650360107425	-772.197631835938	217.9107513427736	149.9148254394532	-693.614440917969	56.5039978027344	128.8428344726563	-723.722106933594	78.37158203125003	93.04001617431643	-394.7947082519534	966.7105102539067	214.0996398925782	-167.2819824218751	637.1879882812502	289.0975646972657	-39.72838973999025	369.0872802734376	274.390106201172	-34.71408843994142	291.1790771484376	271.6891479492189	-407.0427551269534	967.2600097656255	130.5550537109376	-423.0916137695315	946.518432617188	152.2588653564454	-368.2216796875001	1095.989990234375	136.5162658691407	-380.9352111816407	998.049926757813	166.9603271484376	-412.211608886719	949.9063110351567	201.7089996337892	-421.9416503906252	653.9761962890627	19.61275863647462	-623.1730957031252	389.804626464844	67.66979980468753	
67	0.33	-274.1264038085939	1382.934692382813	130.9595336914063	-346.8963317871095	1310.32177734375	207.6195373535157	-164.5147399902344	1285.490966796875	167.4532775878907	-132.875961303711	1094.9306640625	165.3938293457032	-187.3256072998047	896.5488281250005	245.7053833007814	-218.9313201904298	877.842895507813	26.01649856567384	-99.53351593017584	579.5917968750002	272.2464599609376	-101.9706039428712	640.8362426757815	279.6311645507814	-50.49083328247073	320.5027160644532	283.5591125488282	-51.74072647094729	101.153793334961	198.1024932861329	91.00636291503909	68.4875411987305	275.4479980468751	126.036605834961	84.19474029541018	230.8695678710939	-449.4249572753909	619.8327636718752	43.61733627319337	-373.9874877929689	617.0117187500002	17.39385223388673	-654.1713867187502	331.7846069335939	83.54246520996097	-605.431823730469	333.1209106445314	76.37772369384768	-761.9188232421877	226.1311340332032	151.7447052001954	-684.6616210937502	63.8322677612305	130.5888671875001	-714.9213867187502	86.32733154296878	94.62827301025393	-376.4139404296876	969.3265991210942	213.2066192626954	-151.7313995361329	637.420104980469	288.8335266113282	-19.08653640747071	370.7274475097657	273.9330139160157	-10.8491268157959	293.1311340332032	270.8911743164064	-388.4077148437502	969.922241210938	129.5851135253907	-404.5045166015627	949.1536254882817	151.4264831542969	-350.3167114257814	1097.832763671875	135.8054351806641	-362.2412109375001	1000.683959960938	165.9955444335938	-393.5679931640627	952.6607055664067	200.853485107422	-405.2705078125002	656.4494628906252	19.61084365844727	-608.860778808594	394.2926025390627	68.14274597167972	
